<svg xmlns="http://www.w3.org/2000/svg" viewBox="0 0 64 64" fill="none">
  <defs>
    <linearGradient id="rippleGrad" x1="0%" y1="0%" x2="100%" y2="100%">
      <stop offset="0%" style="stop-color:#23292F"/>
      <stop offset="100%" style="stop-color:#0085FF"/>
    </linearGradient>
  </defs>
  <!-- Background circle -->
  <circle cx="32" cy="32" r="30" fill="url(#rippleGrad)"/>
  <!-- Ripple XRP symbol stylized -->
  <g fill="#FFFFFF">
    <!-- Top X arms -->
    <path d="M18 16h5.5l8.5 9 8.5-9H46l-11.5 12L46 40h-5.5l-8.5-9-8.5 9H18l11.5-12L18 16z"/>
  </g>
  <!-- Custody shield overlay -->
  <path d="M32 44c-6-2-10-6-10-12v-8l10-4 10 4v8c0 6-4 10-10 12z" fill="none" stroke="#FFFFFF" stroke-width="1.5" stroke-opacity="0.6"/>
  <!-- Lock symbol -->
  <rect x="29" y="30" width="6" height="5" rx="1" fill="#FFFFFF" fill-opacity="0.8"/>
  <path d="M30 30v-2a2 2 0 114 0v2" fill="none" stroke="#FFFFFF" stroke-width="1.2" stroke-opacity="0.8"/>
</svg>
